<?xml version="1.0" encoding="UTF-8" standalone="no"?>
<svg
   width="512"
   height="512"
   version="1.1"
   id="svg6"
   sodipodi:docname="favicon.svg"
   inkscape:version="1.4 (e7c3feb100, 2024-10-09)"
   xmlns:inkscape="http://www.inkscape.org/namespaces/inkscape"
   xmlns:sodipodi="http://sodipodi.sourceforge.net/DTD/sodipodi-0.dtd"
   xmlns:xlink="http://www.w3.org/1999/xlink"
   xmlns="http://www.w3.org/2000/svg"
   xmlns:svg="http://www.w3.org/2000/svg">
  <defs
     id="defs6">
    <linearGradient
       id="linearGradient18"
       inkscape:collect="always">
      <stop
         style="stop-color:#99cc33;stop-opacity:1;"
         offset="0"
         id="stop18" />
      <stop
         style="stop-color:#99cc33;stop-opacity:1;"
         offset="1"
         id="stop19" />
    </linearGradient>
    <linearGradient
       id="linearGradient5"
       inkscape:collect="always">
      <stop
         style="stop-color:#0f70ff;stop-opacity:1;"
         offset="0"
         id="stop5" />
      <stop
         style="stop-color:#4219ff;stop-opacity:1;"
         offset="1"
         id="stop6" />
    </linearGradient>
    <linearGradient
       inkscape:collect="always"
       xlink:href="#linearGradient5"
       id="linearGradient6"
       x1="8.3146963"
       y1="-1050.0861"
       x2="5.8414316"
       y2="-1037.8916"
       gradientUnits="userSpaceOnUse" />
    <linearGradient
       inkscape:collect="always"
       xlink:href="#linearGradient18"
       id="linearGradient19"
       x1="0"
       y1="1044.4002"
       x2="15.9996"
       y2="1044.4002"
       gradientUnits="userSpaceOnUse" />
  </defs>
  <sodipodi:namedview
     id="namedview6"
     pagecolor="#ffffff"
     bordercolor="#000000"
     borderopacity="0.25"
     inkscape:showpageshadow="2"
     inkscape:pageopacity="0.0"
     inkscape:pagecheckerboard="0"
     inkscape:deskcolor="#d1d1d1"
     inkscape:zoom="0.35355339"
     inkscape:cx="521.8448"
     inkscape:cy="292.74221"
     inkscape:window-width="1920"
     inkscape:window-height="1019"
     inkscape:window-x="0"
     inkscape:window-y="0"
     inkscape:window-maximized="1"
     inkscape:current-layer="g105"
     showgrid="false">
    <inkscape:grid
       id="grid1"
       units="px"
       originx="0"
       originy="0"
       spacingx="32"
       spacingy="32"
       empcolor="#0099e5"
       empopacity="0.30196078"
       color="#0099e5"
       opacity="0.14901961"
       empspacing="5"
       enabled="true"
       visible="false" />
  </sodipodi:namedview>
  <g
     id="g6"
     transform="matrix(32.0008,0,0,32.0008,0,-0.01240032)">
    <g
       transform="matrix(0.99999822,0,0,0.99999822,1.3823192e-5,-1036.3982)"
       fill="#111111"
       id="g1">
      <path
         transform="scale(1,-1)"
         d="m 4.999875,-1052.4 h 5.99985 c 3.9999,0 4.999875,1 4.999875,4.9999 v 5.9998 c 0,3.9999 -0.999975,4.9999 -4.999875,4.9999 h -5.99985 c -3.9999,0 -4.999875,-1 -4.999875,-4.9999 v -5.9998 c 0,-3.9999 0.999975,-4.9999 4.999875,-4.9999 z"
         fill="#9b59b6"
         id="path1"
         sodipodi:nodetypes="sssssssss"
         style="fill:url(#linearGradient6)" />
    </g>
    <g
       transform="matrix(0.32135549,-0.07017456,0,0.33333333,5.5248407,-338.13327)"
       fill="#111111"
       id="g8"
       style="fill:#99cc33;fill-opacity:1" />
    <g
       transform="matrix(0.33333333,-0.06630211,0,0.31493896,5.3332,-324.45071)"
       fill="#111111"
       id="g9"
       style="fill:url(#linearGradient19);fill-opacity:1" />
    <g
       transform="matrix(0.3125,-0.07017456,0,0.33333333,10.999725,-339.25604)"
       fill="#111111"
       id="g10"
       style="fill:#99cc33;fill-opacity:1" />
    <g
       id="g105"
       transform="matrix(1.174312,0,-0.2201835,1.174312,0.36704835,-1.5990819)">
      <g
         id="g26"
         transform="translate(-0.29808855,-2.8124373)">
        <g
           transform="matrix(0.25,0,0,0.25,2.0936978,-252.09988)"
           fill="#111111"
           id="g22"
           style="fill:#ffffff;fill-opacity:1">
          <path
             d="m 4.999875,-1052.4 h 5.99985 c 3.9999,0 4.999875,1 4.999875,4.9999 v 5.9998 c 0,3.9999 -0.999975,4.9999 -4.999875,4.9999 h -5.99985 c -3.9999,0 -4.999875,-1 -4.999875,-4.9999 v -5.9998 c 0,-3.9999 0.999975,-4.9999 4.999875,-4.9999 z"
             fill="#9b59b6"
             id="path22"
             sodipodi:nodetypes="sssssssss"
             style="fill:#ffffff;fill-opacity:1"
             transform="scale(1,-1)" />
        </g>
      </g>
      <g
         id="g100"
         transform="translate(3.9413074,-2.8124373)">
        <g
           transform="matrix(0.25,0,0,0.25,2.0936978,-252.09988)"
           fill="#111111"
           id="g99"
           style="fill:#ffffff;fill-opacity:1">
          <path
             transform="scale(1,-1)"
             d="m 4.999875,-1052.4 h 5.99985 c 3.9999,0 4.999875,1 4.999875,4.9999 v 5.9998 c 0,3.9999 -0.999975,4.9999 -4.999875,4.9999 h -5.99985 c -3.9999,0 -4.999875,-1 -4.999875,-4.9999 v -5.9998 c 0,-3.9999 0.999975,-4.9999 4.999875,-4.9999 z"
             fill="#9b59b6"
             id="path99"
             sodipodi:nodetypes="sssssssss"
             style="fill:#ffffff;fill-opacity:1" />
        </g>
      </g>
      <g
         id="g102"
         transform="translate(3.7201063,1.4269586)">
        <g
           transform="matrix(0.25,0,0,0.25,2.0936978,-252.09988)"
           fill="#111111"
           id="g101"
           style="fill:#ffffff;fill-opacity:1">
          <path
             transform="scale(1,-1)"
             d="m 4.999875,-1052.4 h 5.99985 c 3.9999,0 4.999875,1 4.999875,4.9999 v 5.9998 c 0,3.9999 -0.999975,4.9999 -4.999875,4.9999 h -5.99985 c -3.9999,0 -4.999875,-1 -4.999875,-4.9999 v -5.9998 c 0,-3.9999 0.999975,-4.9999 4.999875,-4.9999 z"
             fill="#9b59b6"
             id="path100"
             sodipodi:nodetypes="sssssssss"
             style="fill:#ffffff;fill-opacity:1" />
        </g>
      </g>
      <g
         id="g104"
         transform="translate(7.9595022,1.4269586)">
        <g
           transform="matrix(0.25,0,0,0.25,2.0936978,-252.09988)"
           fill="#111111"
           id="g103"
           style="fill:#ffffff;fill-opacity:1">
          <path
             transform="scale(1,-1)"
             d="m 4.999875,-1052.4 h 5.99985 c 3.9999,0 4.999875,1 4.999875,4.9999 v 5.9998 c 0,3.9999 -0.999975,4.9999 -4.999875,4.9999 h -5.99985 c -3.9999,0 -4.999875,-1 -4.999875,-4.9999 v -5.9998 c 0,-3.9999 0.999975,-4.9999 4.999875,-4.9999 z"
             fill="#9b59b6"
             id="path102"
             sodipodi:nodetypes="sssssssss"
             style="fill:#ffffff;fill-opacity:1" />
        </g>
      </g>
    </g>
  </g>
</svg>
