<?xml version="1.0" encoding="UTF-8"?>
<svg width="16" height="16" version="1.1" xmlns="http://www.w3.org/2000/svg">
 <g>
  <g transform="translate(0 -1036.4)" fill="#111">
   <path transform="scale(1,-1)" d="m1.0378-1052.4h13.924c0.57495 0 1.0378 0.4628 1.0378 1.0378v13.924c0 0.5749-0.46287 1.0378-1.0378 1.0378h-13.924c-0.57495 0-1.0378-0.4629-1.0378-1.0378v-13.924c0-0.575 0.46287-1.0378 1.0378-1.0378z" fill="#9b59b6"/>
  </g>
  <g>
   <path d="m7 1h2c0.554 0 1 0.446 1 1v2c0 0.554-0.446 1-1 1h-2c-0.554 0-1-0.446-1-1v-2c0-0.554 0.446-1 1-1z" color="#000000" fill="#fff"/>
   <path d="m2 6h2c0.554 0 1 0.446 1 1v2c0 0.554-0.446 1-1 1h-2c-0.554 0-1-0.446-1-1v-2c0-0.554 0.446-1 1-1z" color="#000000" fill="#fff"/>
   <path d="m7 6h2c0.554 0 1 0.446 1 1v2c0 0.554-0.446 1-1 1h-2c-0.554 0-1-0.446-1-1v-2c0-0.554 0.446-1 1-1z" color="#000000" fill="#fff"/>
   <path d="m12 1h2c0.554 0 1 0.446 1 1v2c0 0.554-0.446 1-1 1h-2c-0.554 0-1-0.446-1-1v-2c0-0.554 0.446-1 1-1z" color="#000000" fill="#fff"/>
  </g>
 </g>
</svg>
